<?xml version="1.0" encoding="utf-8"?>
<!-- Generator: Adobe Illustrator 26.0.1, SVG Export Plug-In . SVG Version: 6.00 Build 0)  -->
<svg version="1.1" id="Capa_1" xmlns="http://www.w3.org/2000/svg" xmlns:xlink="http://www.w3.org/1999/xlink" x="0px" y="0px"
	 viewBox="0 0 359 359" style="enable-background:new 0 0 359 359;" xml:space="preserve">
<style type="text/css">
	.st0{fill:#392140;}
</style>
<g>
	<path class="st0" d="M352.4,195.7c4.3-10.5-0.6-22.5-10.9-26.7c-0.3-0.1-0.6-0.2-0.8-0.3l0.1-0.6l-97.6-39.9l7.2-97l-0.2-0.1
		c4.4-11.6-1-24.6-12.3-29.3c-11.1-4.6-23.8,0.6-29,11.6l-0.1,0l-63.4,74.8L51.5,49.8c-1-0.6-2-1.1-3.1-1.6
		c-11.1-4.6-23.9,0.9-28.6,12.3c-3.7,9-1.1,18.8,5.5,24.9l51.7,83.5l-66.9,79l0.4,0.6c-1.6,1.8-2.9,3.9-3.9,6.2
		c-4.5,10.9,0.6,23.4,11.3,27.7c4.7,1.9,9.7,2,14.2,0.5l0.1,0.3l100.3-24.6l55.2,89.2l0.5-0.1c2.2,4.1,5.7,7.5,10.3,9.4
		c10.5,4.3,22.6-0.9,27-11.6c0.8-2,1.3-4,1.5-6l0.3-0.1l7.9-106L336.1,209l0.1-0.6C343.1,207.4,349.5,202.8,352.4,195.7z"/>
</g>
</svg>
