<?xml version="1.0" encoding="utf-8"?>
<!-- Generator: Adobe Illustrator 26.0.1, SVG Export Plug-In . SVG Version: 6.00 Build 0)  -->
<svg version="1.1" xmlns="http://www.w3.org/2000/svg" xmlns:xlink="http://www.w3.org/1999/xlink" x="0px" y="0px"
	 viewBox="0 0 2180.8 1717.2" style="enable-background:new 0 0 2180.8 1717.2;" xml:space="preserve">
<style type="text/css">
	.st0{opacity:0.5;}
	.st1{fill:#CECECE;}
</style>
<g id="Layer_1">
</g>
<g id="Layer_2">
	<g>
		<g class="st0">
			<path class="st1" d="M1580.2,315.2c10.1,4.5,19.4,1.4,28.4-2.8c12.5-5.6,20.6-15.6,26.5-27.6c4.9-10.1,7.8-21,8.3-32
				c1.2-20.6-12.2-34.3-33.2-34.8c-20.3-0.5-38.3,7-54.5,18c-24.2,16.6-38.3,40.1-42.3,68.6c-3.2,22.2,0.5,44.1,13.8,62.8
				c11.8,16.6,27.9,29,49.2,29c18.5,0,35.6-6.5,49.9-19.1c16.4-14.5,27.3-32.7,34.6-53c6.7-18.9,13.4-37.6,16.8-57.4
				c3.5-21,4.8-42.2-2.8-62.8c-2.8-7.5-7.4-14-12.2-20.3c-15.5-21.2-34.9-37.8-58-50c-15-8-30-15.7-45.1-23.4
				c-3.2-1.6-6.3-2.8-9.7-3.8c-10.1-3.1-19.2-0.3-25.6,7.9c-21.3,28.2-41.1,57.4-59.8,87.1c-13,20.6-24.9,42.2-35.8,63.9
				c-9.3,18.7-17.6,38-25.2,57.6c-9,23.4-16.2,47.4-22,71.7c-4.1,17.5-6.7,35.3-9.3,53.2c-4.1,27.1-4.6,54.4-3,81.5
				c1.6,28.7,6.3,57,14.5,84.8c9,31,20.8,60.5,39.1,87.3c12.7,18.5,29.4,32.4,48,44.3c15.2,9.6,31.6,16.6,49,21.2
				c28.7,7.5,55,1.4,79.9-13.1c31.2-18.2,50.4-45.8,63.1-78.7c9.2-23.4,15.5-47.6,18.5-72.4c2.1-16.8,1.9-34.1-0.5-51.3
				c-1.8-12.1-4.9-23.6-10.1-34.5c-10.1-21.9-23.1-41.3-42.3-56.7c-12.5-10-26.1-17.3-40.9-22.4c-27.2-9.4-52.4-4.4-75.1,12.2
				c-28.4,20.6-48,48.3-58.9,81.3c-10.1,30.4-7.2,60.2,10.9,87.1c12.3,18.2,29.3,31.8,51.7,34.8c22.4,3,45,2.4,64-12.4
				c14.8-11.5,24.9-26.4,28.6-44.8c2.5-11.9-2.1-22.9-9.3-32c-8.1-10.1-18-18.7-30.3-24.3c-8.3-3.7-16.8-5.1-25.2-3.5
				c-11.6,2.1-17.6,10.8-21,21.3c-4.6,14.2-1.2,27.5,5.1,40.4c2.1,4.4,5.3,7.2,10.6,6.6c0.9,0,1.9,0,2.8,0c1.9,0.2,3.9,0.5,4.1,3
				c0,2.3-1.4,3.5-3.4,4.2c-5.5,1.9-16.2-1.7-19.4-7.5c-10.6-19.1-13.8-38.8-2.8-58.8c6-11,15.7-16.6,28.7-17.5
				c18.9-1,33,8.7,46.4,19.6c9.5,7.7,16.2,17.8,19.9,29.7c5.1,16.6-0.2,31.3-8.5,45.3c-11.8,20.3-29.3,33.9-52.7,37.6
				c-37.6,5.9-70-1.7-95.2-36.6c-10.1-14-14.6-29.7-17.1-46.7c-4.4-31,6.2-57.9,21.3-83.8c7.8-13.1,16.8-25.5,28.4-35.7
				c12.3-11,25.4-21.2,41.4-26.9c20.8-7.5,41.4-6.6,61.7,1c18.9,7.2,36.3,17.7,50.4,32.2c15.9,16.3,27.7,35.2,36,56.7
				c9.9,25.4,10.9,51.6,8.6,77.8c-3,34.6-12.7,67.9-28.2,99c-18.5,37.1-47.3,63.2-87.5,76.3c-1.2,0.3-2.5,0.7-3.9,1.2
				c4.4,18.2,11.3,35.5,17.3,53c8.3,24.7,15.2,49.7,19.7,75.2c5.6,31.8,6.9,64.2,6.2,96.6c-0.7,34.6-7.9,67.7-21.5,99.5
				c-9.7,22.6-22.2,43.6-37,63.2c-14.6,19.2-33.2,34.1-54.7,45.3c-22.9,12.1-47.1,20.8-72.6,26.2c-29.6,6.3-59.1,4.7-88.2-2.8
				c-31-7.9-59.4-21.2-85.2-40.2c-16.9-12.6-30.7-28.5-43.2-45.5c-19.2-26.1-33.9-54.4-43.2-85.5c-3.7-12.4-7.1-25-8.6-37.8
				c-0.9-7.5-2.8-8.7-10.1-5.9c-12.2,4.7-24.3,9.4-36.3,14.7c-18,7.9-37.2,11-56.4,13.6c-12.7,1.7-25,4.2-37.6,6.5
				c-17.3,3-34.6,5.6-51.8,7.5c-20.5,2.3-40.9,1.7-61.4,1.2c-20.1-0.5-39.9-4.2-59.4-8.9c-26.5-6.5-50.6-18-73-32.9
				c-35.6-23.4-64.2-53.4-81.3-92.5c-12.3-28.3-18.2-58.3-14.8-89c3.9-35.3,16.6-67.4,39.5-95.2c17.6-21.7,39-38.3,64.4-49.9
				c14.6-6.6,30-10.5,46-12.6c7.9-1,15.9-2.1,23.8-1.6c36.3,2.3,70.2,11.2,96.3,38.1c15.5,16.1,25.6,35.5,30,57.4
				c4.6,22.9,1.8,45.3-4.6,67.5c-5.5,18.9-11.6,37.6-24,53.5c-12.9,17-27.5,31.8-49.2,37.3c-12.5,3.1-24.9,3.8-37.7,1.9
				c-19-2.8-36.5-8.6-52.7-18.9c-17.5-11-29.4-26.4-36.7-45.1c-8.3-21.3-6.5-42.3,5.8-61.9c14.6-23.3,35.1-40.2,60.5-50.7
				c18.5-7.7,36.7-6.6,53.8,4.7c6.3,4.2,10.8,10.1,13.9,16.6c8.6,17.7,11.1,36.2,3.2,54.2c-8.3,18.7-24,31.3-44.6,33.4
				c-17.1,1.9-32.8-4.9-37.2-22.7c-3.2-12.8,1.6-29.6,16-37.4c7.4-3.8,16.9-1,20.6,6.1c0.7,1.2,0.9,2.4,0.2,3.7
				c-1.1,1.6-2.6,1.6-4.2,1.4c-2.1-0.2-3.5-1.6-4.8-3c-3-3.1-6.2-2.4-9.5-0.5c-8.1,4.5-12.9,15.4-11.5,26.4
				c1.1,7.7,8.3,14.5,17.1,17.5c10.8,3.5,20.1,0.5,29.1-4.7c10.8-6.3,19.7-14.3,23.3-26.6c5.3-19.4,0.9-48.5-19.7-59.8
				c-12.9-7.2-26.1-8-39.7-3.3c-14.3,5.1-26.8,13.3-37.7,23.8c-7.9,7.7-16.4,15-22.2,24.8c-14.6,25-12,49.3,3.4,72.6
				c13.9,21.3,34.7,33.4,59.1,39.5c17.3,4.4,35.1,6.3,52.7,0.3c16.4-5.6,28.7-15.9,39.1-29.4c16.9-22,25.2-47.4,30.3-74.2
				c4.8-24.7,2.5-48.6-8.6-71.4c-8.5-17.5-21-31.8-37.6-42.3c-18.3-11.7-38.6-17-60.3-19.6c-32.1-3.8-61.7,2.6-89.4,17.7
				c-34.7,18.9-60.1,46.7-75.5,83.1c-6.5,15.6-11.5,31.8-12.9,48.5c-1.6,19.2-1.2,38.7,3.9,57.6c8.8,33.2,25.2,61.9,49.6,86.6
				c28.2,28.3,61,49,99.3,61.1c17.6,5.6,35.8,8.7,54.3,10.5c14.8,1.4,29.3,1.4,44.1,1.6c26.3,0.3,52.2-3.5,77.9-8
				c18.5-3.3,36.9-7,55.5-9.3c15-1.9,29.3-6.8,43.2-11.9c12.5-4.7,24.9-9.8,37.4-14.7c2.8-1,3.7-2.4,4.2-5.9
				c2.1-12.9,0.5-25.9,1.6-38.8c2.8-39.2,12.7-76.3,36.1-108.5c16.2-22.4,35.4-41.6,61.5-53c12.2-5.2,24.7-8,37.9-8.7
				c16.2-0.9,31.7,1,46.7,7.7c9.3,4.2,18.3,9.3,26.1,15.7c22.7,19.4,41.8,41.6,53.3,69.8c9,21.9,15.2,44.4,18.5,67.5
				c4.8,32.7,3.2,65.1-9.5,96.2c-7.1,17.3-16,33.9-28.4,48.3c-17.8,20.5-46,26.4-71.8,15.6c-31.2-13.3-54.1-35.9-70.4-64.9
				c-10.8-19.4-15.5-41.1-13.8-63.3c1.8-22,7.8-43,21-61.4c9.7-13.5,22.4-23.1,39.5-24c11.5-0.5,21.7,4.2,30.3,12.2
				c13.9,13.1,21.5,29.7,26.1,47.9c3.2,12.4,3.9,25,0.2,37.6c-5.6,19.8-17.6,33.4-37.7,39.5c-9,2.8-16.4,1.2-22.4-5.9
				c-9.9-11.9-13.9-29.2-6.7-45.3c7.8-16.8,21.2-25,39.3-25.5c9.2-0.3,16.2,6.1,17.5,14.5c0.5,3-0.4,5.2-3.4,5.9
				c-3.2,0.7-3.4-1.7-4.1-4c-2.5-7.3-6.2-9.8-13.6-8.7c-20.8,2.8-30.7,17.1-32.1,34.6c-0.7,8.4,2.5,17,8.1,23.8
				c3.7,4.5,10.2,5.6,16.8,3.1c19.4-7.2,30.2-21.7,32.1-41.3c2.6-26.6-6.9-49.5-24.9-69.6c-12.2-13.5-36.1-12.6-49.2-0.5
				c-15.5,14.5-23.1,32.5-27.3,52.3c-5.6,26.8-1.9,52.7,11.8,76.3c16,27.8,38.3,49.7,69.5,60.9c26.8,9.4,46.7,0.2,60.8-17.5
				c18.7-23.4,30.2-50.4,34.6-80.3c4.6-30.1,0-59.3-7.2-88.2c-6-24.5-16.2-47.4-31.4-67.9c-16.4-22-36.1-40.6-63-49.3
				c-29.3-9.6-57.5-5.4-83.8,10.3c-30.7,18.5-50.4,46.2-64.5,78.2c-7.9,18-11.6,37.3-14.1,56.9c-4.4,34.5-0.5,68.2,8.8,101.5
				c10.4,37.1,28.2,70.3,52.7,100.4c32.8,40.4,76.2,62.5,126.3,73.8c18.7,4.2,37.6,4.5,56.3,3.1c19-1.6,37.7-6.8,55.5-13.8
				c20.8-8,40.7-18.2,58.5-32c14.8-11.5,26.6-25.7,36.7-40.9c13.2-19.9,24.2-41.1,32.1-63.7c6.3-17.7,9.5-35.9,12.3-54.4
				c1.9-12.6,1.6-25.2,2.8-37.8c1.2-14.3-1.4-29-2.5-43.4c-0.9-11.7-2.8-23.1-4.4-34.8c-2.1-15-5.6-29.7-9.5-44.4
				c-6.9-26.4-16-52.1-24.9-77.8c-0.4-0.9-0.5-1.9-0.7-2.8c-2.3-7.7-2.3-7.9-10.4-6.1c-5.1,1-10.2,0.9-15.3,0.5
				c-22-1.9-42.5-8.9-61.5-19.6c-18.2-10.1-34.6-22.7-48.8-38.1c-9-9.6-16.8-19.9-23.1-31.5c-20.1-36.9-32.6-76.1-39-117.6
				c-3.4-21.3-5.5-42.7-5.5-64.2c0-2.8,0.5-5.6-1.2-8.9c-4.2,1.9-8.1,3.7-10.9,7.3c-18.9,24.8-44.6,40.1-73,52.1
				c-21.3,9.1-43.4,15.2-65.9,19.6c-7.8,1.4-15.7,2.3-23.6,3c-10.8,1-21.7,1.7-32.4,1.6c-17.8-0.3-35.6-1.9-53.3-5.1
				c-3.5-0.7-6,0.2-9,2.1c-7.2,4.9-13.6,10.8-18.5,17.7c-19.6,27.8-34.9,57.9-40,91.7c-4.6,28.9,0.5,56.5,20.6,79.4
				c8.8,10.1,20.8,17,33.7,21.5c46,16.1,89,10.3,128.9-18.4c21-15,37.4-33.4,49.2-56c3.5-6.6,6-13.5,6.9-20.6
				c1.9-14.9-4.2-24.5-19.6-31.1c-7.2-3.1-15.2-5.1-23.3-4.7c-10.6,0.5-21-1-31.6,1.9c-16,4.5-29.4,12.6-40.6,25.4
				c-9.2,10.5-15.9,22-20.6,35c-3.7,10-2.8,19.9,0,29.9c2.1,7.5,15.7,18.9,25.7,18.9c15.5,0,25.7-8.7,34.2-19.8
				c4.9-6.5,8.5-14,11.1-22c3-9.4-2.8-21.2-14.8-23.3c-3.5-0.5-6,0.5-7.8,3.8c-5.1,9.3-2.3,17.8,2.1,26.2c0.5,1,1.6,1.9,2.5,3
				c1.4,1.7,3.2,3.8,1.1,5.8c-2.1,2.1-4.9,1.4-6.9-0.7c-9.3-10.7-13.4-26.8-4.6-39.5c4.4-6.3,10.8-8,18.5-5.2
				c14.5,5.2,21.5,18,16.6,33.8c-5.6,18-15.9,32.9-34,41.6c-21.3,10.1-50.4-0.5-53.6-32.9c-1.4-14.9,3.7-28.2,11.1-40.8
				c10.9-18.5,25-33.6,45.3-42.3c8.8-3.8,18.2-6.1,27.9-6.3c14.3-0.2,28.6-0.3,42.7,4.4c23.3,8,32.1,29,24,50.9
				c-6.7,18.5-17.8,34.3-31.4,48.5c-15.9,16.6-33.7,30.3-54.7,39.4c-15.3,6.6-31,11.2-48.1,11.4c-16.8,0.2-33.2-1-49.2-5.9
				c-36.5-10.8-60.3-33.6-67.5-71.4c-5.1-26.6-1.1-52.3,8.8-77.3c7.8-19.2,16.6-37.8,29.3-54.4c5.5-7.2,10.1-15.4,19-20.3
				c-2.1-2.4-4.2-3.1-6.9-3.7c-21-4.4-41.3-11.2-60.7-20.5c-16-7.7-31.2-17.3-45.3-28.3c-28-21.9-50.6-48.5-65.9-80.5
				c-11.1-23.3-18.3-47.8-21-73.6c-1.2-11.4-0.9-22.7-1.6-34.1c-0.4-6.1,2.3-11.7,2.1-17.8c0-4.5-1.2-7.5-5.1-10.3
				c-15.5-11.2-32.8-16.6-51.8-16.8c-19.9-0.2-39.9-0.7-59.6,0.2c-27.3,1.2-53.6,7.2-79,17.5c-30.3,12.4-58.4,28.7-84.1,48.8
				c-21.5,16.8-39,37.3-55,59.1c-13.9,19.1-25.9,39.2-36.3,60.4c-12.2,25-19.7,51.3-23.8,78.7c-2.8,20.3-1.1,39.9,5.8,58.8
				c10.2,28,30.5,46.2,59.4,53c13.4,3.1,28,2.4,41.8-1.6c22.6-6.5,43.7-16.1,62.1-31c21.5-17.3,40-37.6,52.2-62.5
				c9.9-19.9,16.6-41.3,15.3-64c-1.2-22.2-8.5-41.6-28.6-54.1c-10.8-6.6-22.7-9.6-35.3-11.2c-11.5-1.4-22.7-0.3-33.9,2.1
				c-11.3,2.4-20.5,8.2-28.9,15.9c-26.6,24.1-42,54.6-51,88.7c-4.8,18.4,7.8,40.2,31.4,40.4c24.7,0,47.3-17.1,53.4-40.8
				c2.1-8.2-0.5-15.4-5.8-21.2c-7.4-8.2-17.3-11.7-28.6-10.7c-4.1,0.3-6.3,3.1-7.6,6.5c-2.5,7.5-4.8,15-5.5,22.9
				c-0.4,3.3,0.5,6.3,2.1,9.1c1.1,2.1,1.9,4.4-0.5,5.8c-3.2,1.7-4.9-0.7-6.2-2.8c-2.3-4.2-3.9-8.7-3-13.6c1.1-6.3,2.5-12.4,3.7-18.5
				c0.7-4.2,2.8-7.9,5.1-11.2c1.8-2.6,4.1-5.1,7.4-5.6c21.5-3.3,41.1,8.9,46,25.9c2.1,7.5,1.4,14.5-1.8,21.3
				c-7.4,16.1-18.5,29.2-34.7,36.7c-20.8,9.6-42.8,5.4-57.3-13.5c-6.3-8.4-8.3-18.5-6.7-29c1.9-11.9,6.3-23.1,11.1-34.3
				c7.1-16.4,15.7-31.8,27-45.7c13.8-16.8,29.8-30.8,52-35c29.3-5.6,56.8-1.2,80.2,17.7c12.3,9.8,18.5,24.1,21.2,39.5
				c5.5,31-2.5,59.5-17.1,86.6c-18.5,34.3-45.8,59.8-79.9,78.5c-23.6,12.9-49.2,19.6-76.5,16.8c-17.5-1.7-32.3-10-45.1-21.5
				c-19.4-17.3-28.6-39.4-31.6-65.1c-3.9-33.6,3.9-64.9,15.5-95.3c13.9-36.4,34.7-69.1,59.6-99.2c35.8-43.2,80.1-74,132.3-94.5
				c17.1-6.6,34.6-11.2,52.4-14.5c8.5-1.6,17.1-2.1,25.7-2.3c19.2-0.3,38.4,0,57.7-0.2c11.3,0,22.2,2.3,33,5.1
				c7.6,2.1,13.8,6.6,20.1,10.7c6.9,4.4,7.9,3.7,9.7-4.4c7.1-30.6,20.3-58.4,40.2-83.3c16.4-20.6,36.7-36.2,60.1-47.6
				c17.6-8.4,36.3-13.6,55.7-16.4c19-2.8,37.6-2.3,56.1,2.4c17.6,4.4,33.2,13.1,46.9,25c35.8,30.8,55.5,70.7,63.1,116.2
				c2.5,15.2,4.1,31.1,1.4,47.2c-2.1,13.1-2.8,26.4-6.7,39.2c-9.7,32.7-27.5,59.5-59.6,74.3c-23.3,10.8-47.8,14.9-73.7,11.2
				c-13.9-1.9-26.6-5.6-38.8-12.4c-18.5-10.1-30.7-25.9-38.6-44.6c-5.8-13.5-9.3-27.6-8.3-42.5c3-42.7,24.9-76.3,67.2-91.8
				c9.5-3.5,19.4-6.6,29.6-7.3c19.7-1,36.9,6.1,52.5,17.5c9.2,6.6,16.6,14.5,22.9,24c6.9,10.5,10.4,21.7,10.4,33.9
				c0,7,0.5,14-0.7,20.8c-3.9,22.2-18.2,36.4-36.9,47.1c-6.5,3.7-13.4,6.1-20.5,8.2c-12.2,3.5-28.7-2.6-36.9-14.7
				c-3-4.4-3.9-9.6-2.1-15.4c3.9-12.2,11.3-21.3,23.1-26.6c9.3-4.2,19.6-0.3,22.7,7.7c0.9,2.1,0.7,3.7-1.1,4.9c-1.6,1-3,0.3-4.2-0.7
				c-2.8-2.4-4.9-5.6-9.5-5.8c-6.2-0.3-10.6,3-14.3,6.8s-6.7,8.4-8.3,13.8c-1.9,6.5-0.7,11.7,4.4,16.1c9.2,7.5,19.4,9.4,30.5,5.1
				c15.2-5.9,28.6-14.2,37.6-28.3c5.3-8.2,8.6-17,8.3-26.8c-0.4-7.9,0.9-15.7-1.2-23.6c-4.2-15-12.9-26.9-24.5-36.7
				c-9.3-7.7-19.7-14-31.7-17.3c-15.5-4.4-30.3-1.9-45,3.5c-24.2,8.7-43.2,23.6-54.5,46.7c-15.9,32.9-13.9,65.4,6.9,95.5
				c14.3,20.8,34.7,32.2,60.7,35.7c18.9,2.4,36.9,0.7,54.8-4.4c25.7-7.3,45.7-22.2,58.7-45.7c10.9-19.8,16.4-40.9,18.7-63.3
				c0.9-8.9,1.9-17.7,1.4-26.4c-1.4-25.2-6.3-49.5-17.3-72.4c-9.9-21.2-22.2-40.8-39.3-56.9c-22.2-20.8-48.5-32.7-79.4-32.5
				c-41.1,0-78.1,12.2-110,37.8c-22.9,18.4-40.2,41.6-51.5,68.9c-5.3,12.6-9.5,25.5-12.3,38.8c-4.4,20.8-7.2,42-4.9,63.2
				c3.9,37.3,14.3,72.8,36.3,103.9c21.3,29.9,47.6,54.4,80.1,72.4c29.1,16.3,60.1,25.9,92.9,30.8c21.2,3.3,42.3,6.1,63.7,5.4
				c52.4-1.6,101.6-14.5,146.2-42.3c9.9-6.1,19-13.6,26.6-22.9c5.5-7,12-13.3,19.9-17.7c3.9-2.1,4.9-4.9,5.3-9.3
				c3.7-55.6,15.3-109.3,35.3-161.6c11.3-29.7,25.9-57.9,40-86.4c0.2-0.3,0.2-0.5,0.5-0.9c14.3-15.7,6.3-31-1.9-45.3
				c-12.7-21.7-30.2-39-52.5-51.4c-7.9-4.4-16.6-7.5-25.4-8c-20.5-1-40.9-1.6-61,3.7c-23.8,6.3-37.7,24-40.4,47.6
				c-1.1,9.6,1.8,19.6,5.8,28.5c9.7,21,23.6,38.1,46.2,46.9c16,6.1,30.9,2.4,40.7-11.2c8.8-12.2,13.9-26.1,16.6-41.1
				c1.4-7.9,2.5-15.6-0.2-23.4c-1.9-5.8-5.6-9.8-11.6-11.4c-12.9-3.5-24.7-2.1-34.2,8.4c-4.8,5.2-4.8,7.9-0.5,13.3
				c4.6,5.8,9.5,11.2,16.6,14c7.2,3,10.4,1.2,13-6.1c0.9-2.4,1.2-4.9,1.4-7.3c0.5-4,3.2-5.1,6.9-5.1c3.9,0.2,5.3,2.1,2.8,5.4
				c-2.1,2.6-3.4,5.6-3.7,8.6c-0.5,4.7-3.4,7.3-6.3,10.1c-4.1,3.8-8.5,4.7-13.9,2.6c-9.9-3.8-17.6-10.3-23.6-18.7
				c-6-8.2-3.9-18.9,5.3-25.9c13.2-10.1,28-11.5,43.4-5.6c5.5,2.1,9,6.6,11.3,12.2c5.8,14.3,1.9,28.2-1.2,42
				c-2.8,13.3-9.3,25.2-18,35.3c-9.9,11.9-23.8,16.8-41.6,12.4c-18.7-4.5-31.9-16.8-43.6-31.1c-11.5-14.3-17.8-31-18.5-49
				c-0.5-14.9,4.1-28.5,14.6-40.1c11.5-12.6,25.7-19.1,42.5-21.7c17.3-2.6,34.6-2.1,51.7-1.6c13.8,0.3,26.5,6.1,37.2,14
				c21.3,15.4,40.2,33.6,51.1,58.1c1.9,4.2,2.5,9.1,5.6,13.5c5.3-3.3,6.7-8.7,9.5-13.1c19.7-31.5,40.7-62.1,64-91.1
				c19.2-24.1,39.7-47.1,61.9-68.7c4.6-4.4,8.8-9.1,12.9-14.2c5.5-7,12.9-12.2,20.8-16.6c5.6-3.1,10.4-1,15.2,2.1
				c1.6,1,3,2.6,1.8,4.9c-1.1,1.9-3,2.4-4.9,1.2c-7.4-4.9-12.3-0.5-17.5,4.2c-17.6,16.6-33.9,34.6-50.3,52.3
				c-8.3,8.9-17.1,17.8-24.5,29c12.9,2.4,24.3,6.8,35.1,12.9c16.9,9.8,34.7,17.7,51.1,28.2c2.6,1.7,5.3,3.7,7.8,5.6
				c17.3,14.3,33.7,29.7,44.3,49.5c9.7,18,12.2,37.8,9,58.1c-1.2,8.4-1.6,17-3.4,25.4c-4.6,20.5-11.3,40.2-19.2,59.7
				c-7.1,17.3-16.9,32.5-30.7,45.5c-12.7,11.9-28,18.4-45.1,21.5c-14.5,2.8-28,0.5-40.6-6.6c-13.2-7.5-24.2-17.5-31.2-31.3
				c-19.6-38.3-15.3-75.2,8.5-109.7c17.3-25.2,43.2-39,73.2-44.6c12.7-2.3,25.6-0.2,37,6.8c6.3,3.8,10.1,9.8,12.2,16.6
				c6.5,21.7,2.3,41.8-9.3,60.7c-8.8,14.2-20.8,24.5-37.7,28.5c-12.2,2.8-23.5,1.6-34.2-4.9c-8.6-5.2-12-15.7-8.1-26.1
				c3.4-8.4,8.6-15.6,15.7-21.3c5.1-4.2,11.3-5.2,17.1-2.6c5.5,2.4,6.5,8,6.7,13.8c0.5,8.9-2.3,17-5.8,24.7
				C1589.5,311.7,1586.3,315.9,1580.2,315.2c-3.2-3.8-0.2-7,1.4-10.5c2.8-6.3,6.3-12.6,5.8-19.9c-0.2-2.3-0.2-4.7-2.6-5.8
				s-4.2,0.5-6,1.9c-3.5,3.1-6.9,6.5-9.2,10.8c-4.4,8.7-2.8,14.7,5.8,19.9C1577,313,1578.8,313.8,1580.2,315.2z"/>
			<path class="st1" d="M1631.5,1124.8c-1.8-0.3-3.2-1.4-3-3.1c0.2-2.6,1.1-5.2,4.2-5.4c2.5-0.2,2.8,2.1,2.8,4
				C1635,1122.7,1634.1,1124.7,1631.5,1124.8z"/>
			<path class="st1" d="M1594.3,1188.2c-0.4,1.7-1.4,1.9-2.8,1.9c-1.8-0.2-3-1.2-3.4-3c-0.4-1.6,1.1-2.3,2.3-2.3
				C1592.5,1185,1594.1,1185.9,1594.3,1188.2z"/>
			<path class="st1" d="M2435.4,40.6c-16.4-1.4-18.3-14.5-12.9-24.3c3.2-5.8,7.6-10.1,12.5-14c4.6-3.7,9.2-1.4,10.1,4.5
				c1.2,9.6-2.5,17.8-7.1,25.9C2436.6,35.3,2435,37.6,2435.4,40.6C2435.2,40.6,2435.4,40.6,2435.4,40.6z"/>
		</g>
	</g>
</g>
</svg>
